<?xml version="1.0" encoding="UTF-8"?>
<svg id="Layer_1" xmlns="http://www.w3.org/2000/svg" viewBox="0 0 600 600">
  <path d="M371.87,460.86c-5.52-47.18-11.04-94.42-16.58-141.88-1.5.74-1.33,2.09-1.61,3.08-7.14,24.73-14.22,49.48-21.3,74.23-3.46,12.09-6.93,24.18-10.32,36.3-.86,3.09-1.47,6.26-2.09,9.42-.24,1.23-.32,2.52-.3,3.78.08,4.18,2.06,7.18,6.07,8.32,3.35.95,6.87,1.33,10.32,1.92,1.22.21,2.47.29,4.07.47-.49,1.74-.9,3.17-1.33,4.67h-58.06c.16-.87.22-1.62.43-2.32.65-2.25.68-2.15,3-2.36,3.49-.31,6.97-.74,10.44-1.18.74-.1,1.45-.48,2.54-.87-34.03-86.37-68.02-172.58-102.03-258.78-.22.02-.45.05-.67.07-.32.97-.67,1.93-.95,2.92-9.23,32.35-18.47,64.7-27.69,97.05-9.32,32.73-18.66,65.45-27.92,98.2-2.15,7.6-3.86,15.32-4.69,23.2-.41,3.89-.67,7.78.32,11.63,1.25,4.88,4.2,8.28,8.92,10.09,4.77,1.84,9.8,2.53,14.83,3.18,2.51.32,5.02.57,7.92.9-.58,2.89-1.25,5.56-2.22,8.27h-98.14c1-2.64,1.88-4.99,2.78-7.33.45-1.15,1.48-1.06,2.46-1.12,3.8-.23,7.59-.47,11.39-.73,8.15-.56,15.35-3.41,21.44-8.95,2.56-2.33,4.5-5.11,6.07-8.17,3.93-7.67,6.89-15.73,9.29-23.97,7.32-25.09,14.52-50.21,21.71-75.33,14.34-50.16,28.62-100.34,43.02-150.48.7-2.45.46-4.28-1.13-6.15-1.77-2.08-3.35-4.32-5.12-6.39-6.85-7.99-15.63-12.46-25.98-13.86-4.83-.65-9.69-1.05-14.54-1.56-1.04-.11-2.09-.21-3.56-.35.78-2.61,1.4-4.94,2.19-7.21.17-.49.92-.94,1.49-1.09.73-.19,1.55-.08,2.33-.08,23.71,0,47.41,0,71.12,0,.2,0,.39,0,.59,0q2.97.02,4.02,2.69c5.23,13.24,10.45,26.49,15.68,39.73,26.18,66.41,52.36,132.83,78.54,199.24.35.88.76,1.73,1.43,3.24.55-1.67.9-2.65,1.19-3.66,10.06-35.16,20.12-70.31,30.17-105.47,7.42-25.97,14.89-51.93,22.21-77.93,2.67-9.48,4.95-19.08,5.21-29.01.06-2.13,0-4.33-.49-6.39-1.41-5.85-5.03-9.92-10.88-11.52-3.46-.95-7.06-1.44-10.63-1.85-3-.35-6.04-.26-9.06-.4-.85-.04-1.69-.19-2.92-.34.78-2.58,1.41-4.91,2.21-7.18.17-.49.95-.94,1.52-1.06.84-.19,1.75-.07,2.62-.07,30.93,0,61.85,0,92.78,0,1.13,0,2.26.07,3.92.13-.92,2.8-1.6,5.22-2.56,7.51-.22.53-1.45.82-2.24.89-3.21.25-6.44.25-9.64.54-10.91,1.02-20.12,5.57-26.85,14.25-2.82,3.64-4.84,8-6.78,12.23-3.88,8.44-6.48,17.35-9.06,26.25-3.04,10.49-6.04,20.99-8.93,31.52-.53,1.93-.77,4.05-.64,6.04,1.05,16.16,2.02,32.32,3.4,48.45,1.24,14.57,2.89,29.11,4.49,43.64,1.78,16.19,3.69,32.37,5.56,48.55,1.76,15.21,3.53,30.42,5.31,45.63.05.46.22.9.5,1.98.9-1.08,1.52-1.73,2.04-2.46,10.99-15.29,21.98-30.58,32.96-45.87,21.97-30.58,43.94-61.16,65.88-91.77.98-1.36,1.95-2.16,3.78-2.15,12.88.07,25.76.02,38.63.01.67,0,1.33.11,2.21.18v4.28c-.65.13-1.37.35-2.11.43-3.59.37-7.18.76-10.77,1.04-3.28.26-5.95,1.67-8.29,3.9-2.51,2.4-4.51,5.18-5.67,8.43-2.2,6.14-4.41,12.3-6.24,18.56-10.66,36.5-21.24,73.03-31.77,109.58-1.08,3.73-1.91,7.58-2.35,11.44-.92,8.16,2.28,12.29,10.38,13.7,2.77.48,5.62.54,8.43.77.86.07,1.73.09,3.02.16-.29,1.53-.54,2.89-.78,4.15-2.46.78-71.63.99-74.46.24.15-.82.29-1.66.46-2.5.26-1.34,1.03-1.89,2.45-1.94,3.31-.12,6.63-.26,9.91-.67,6.12-.77,10.78-3.89,13.62-9.41,1.42-2.76,2.79-5.61,3.7-8.57,3.94-12.86,7.81-25.75,11.52-38.68,7.36-25.69,14.6-51.41,21.87-77.12.25-.89.42-1.8.15-2.92-.64.82-1.32,1.61-1.92,2.45-24.23,33.89-48.44,67.78-72.66,101.67-8.34,11.66-16.76,23.27-24.95,35.04-1.89,2.71-3.9,3.84-7.63,2.86Z"/>
</svg>