<?xml version="1.0" encoding="UTF-8"?>
<svg id="Layer_1" data-name="Layer 1" xmlns="http://www.w3.org/2000/svg" viewBox="0 0 2048 2048">
  <defs>
    <style>
      .cls-1 {
        fill: #000;
        stroke-width: 0px;
      }
    </style>
  </defs>
  <path class="cls-1" d="M939.49,1390.24l-8.99-677.89c-.09-6.9-5.71-12.45-12.61-12.45h-3.13s0,0,0,0l9.16,520.98s0,0,0,0l-360.53-563.13s0,0,0,0h-136.11s0,0,0,0v8.31s0,0,0,0c35.32,20.78,49.87,60.26,49.87,89.35l4.17,423.65s0,0,0,0h15.61s0,0,0,0l-4.2-435.06s0,0,0,0l416.64,646.24s0,0,0,0h30.13s0,0,0,0Z"/>
  <path class="cls-1" d="M692.32,1201.96c-189.37,7.81-195.71,14.15-203.52,203.52-7.81-189.37-14.15-195.71-203.52-203.52,189.37-7.81,195.71-14.15,203.52-203.52,7.81,189.37,14.15,195.71,203.52,203.52Z"/>
  <path class="cls-1" d="M1612.12,1266.32l-27.96-533.3c-1.04-28.99,9.32-46.6,32.1-65.24h0s0-8.28,0-8.28h0s-130.47-1.04-130.47-1.04h0s-202.96,542.61-202.96,542.61h0s-237.12-541.57-237.12-541.57h0s-133.58,0-133.58,0h0s0,8.28,0,8.28h0c11.89,5.73,21.16,13.14,27.81,21.99.08.11.16.21.24.32.97,1.31,2,2.58,3.07,3.81,4.89,5.67,12.16,18.68,22.56,47.14.86,2.35,1.8,4.67,2.82,6.95l263.49,590.81h0s14.49,0,14.49,0h0s232.98-619.22,232.98-619.22h0s30.03,558.13,30.03,558.13c2.07,45.56-11.39,84.91-43.49,103.55h0s0,8.28,0,8.28h0s201.92,0,201.92,0h0s0-8.28,0-8.28h0c-39.35-24.85-52.82-55.92-55.92-114.94Z"/>
</svg>